<mxfile host="app.diagrams.net" modified="2022-11-23T04:24:53.845Z" agent="5.0 (Macintosh; Intel Mac OS X 10_15_7) AppleWebKit/537.36 (KHTML, like Gecko) Chrome/107.0.0.0 Safari/537.36" version="20.6.0" etag="RuU0CSxgE9fl4iCybZgG" type="github">
  <diagram id="x9CeYZ6qNMhSEXkOYQX4" name="Page-1">
    <mxGraphModel dx="1261" dy="817" grid="1" gridSize="10" guides="1" tooltips="1" connect="1" arrows="1" fold="1" page="1" pageScale="1" pageWidth="827" pageHeight="1169" math="0" shadow="0">
      <root>
        <mxCell id="0" />
        <mxCell id="1" parent="0" />
        <UserObject label="Availability Zone" lucidchartObjectId="kbC_xYOWX-AI" id="kSocjRPX8fHmyO7YEwBQ-1">
          <mxCell style="html=1;overflow=block;blockSpacing=1;whiteSpace=wrap;verticalAlign=top;dashed=1;dashPattern=5 5;fontColor=#0E82B8;container=1;pointerEvents=0;collapsible=0;recursiveResize=0;fontSize=13;spacing=0;strokeColor=#147eba;strokeOpacity=100;fillOpacity=0;fillColor=#ffffff;strokeWidth=1.5;" vertex="1" parent="1">
            <mxGeometry x="385" y="285" width="815" height="280" as="geometry" />
          </mxCell>
        </UserObject>
        <UserObject label="Availability Zone" lucidchartObjectId="YcC_O5aK2VhN" id="kSocjRPX8fHmyO7YEwBQ-2">
          <mxCell style="html=1;overflow=block;blockSpacing=1;whiteSpace=wrap;verticalAlign=top;dashed=1;dashPattern=5 5;fontColor=#0E82B8;container=1;pointerEvents=0;collapsible=0;recursiveResize=0;fontSize=13;spacing=0;strokeColor=#147eba;strokeOpacity=100;fillOpacity=0;fillColor=#ffffff;strokeWidth=1.5;" vertex="1" parent="1">
            <mxGeometry x="390" y="570" width="810" height="262" as="geometry" />
          </mxCell>
        </UserObject>
        <UserObject label="Auto Scaling" lucidchartObjectId="2rC_PFtJX50F" id="kSocjRPX8fHmyO7YEwBQ-3">
          <mxCell style="html=1;overflow=block;blockSpacing=1;whiteSpace=wrap;shape=mxgraph.aws4.groupCenter;grIcon=mxgraph.aws4.group_auto_scaling_group;grStroke=1;verticalAlign=top;fontColor=#D75F17;spacingTop=25;container=1;pointerEvents=0;collapsible=0;recursiveResize=0;fontSize=13;spacing=0;strokeColor=#d86613;strokeOpacity=100;fillOpacity=0;fillColor=#ffffff;dashed=1;fixDash=1;dashPattern=6 5;strokeWidth=1.5;" vertex="1" parent="1">
            <mxGeometry x="855" y="294" width="330" height="262" as="geometry" />
          </mxCell>
        </UserObject>
        <UserObject label="" lucidchartObjectId="MXm-I3CPwiWs" id="kSocjRPX8fHmyO7YEwBQ-4">
          <mxCell style="html=1;overflow=block;blockSpacing=1;whiteSpace=wrap;shape=mxgraph.aws4.users;labelPosition=center;verticalLabelPosition=bottom;align=center;verticalAlign=top;pointerEvents=1;fontSize=13;spacing=0;strokeOpacity=100;fillOpacity=100;fillColor=#666666;strokeWidth=1.5;strokeColor=none;" vertex="1" parent="1">
            <mxGeometry x="76" y="451" width="57" height="57" as="geometry" />
          </mxCell>
        </UserObject>
        <UserObject label="&lt;div style=&quot;display: flex; justify-content: center; text-align: center; align-items: baseline; font-size: 0; line-height: 1.25;margin-top: -2px;&quot;&gt;&lt;span&gt;&lt;span style=&quot;font-size:13.3px;color:#666666;font-weight: bold;&quot;&gt;VPC&#xa;&lt;/span&gt;&lt;/span&gt;&lt;/div&gt;&lt;div style=&quot;display: flex; justify-content: flex-start; text-align: left; align-items: baseline; font-size: 0; line-height: 1.25;margin-top: -2px;&quot;&gt;&lt;span&gt;&lt;span style=&quot;font-size:13px;color:#666666;&quot;&gt;&lt;span style=&quot;font-size:11.7px;color:#666666;&quot;&gt;10.0.0.0/16&lt;/span&gt;&lt;/span&gt;&lt;/span&gt;&lt;/div&gt;" lucidchartObjectId="MXm-Ot4Srksy" id="kSocjRPX8fHmyO7YEwBQ-5">
          <mxCell style="html=1;overflow=block;blockSpacing=1;whiteSpace=wrap;shape=mxgraph.aws4.group;grIcon=mxgraph.aws4.group_vpc;verticalAlign=top;align=left;grIconSize=40;spacingLeft=45;spacingTop=5;fontColor=#2C8723;container=1;pointerEvents=0;collapsible=0;recursiveResize=0;fontSize=13;spacing=0;strokeColor=#248814;strokeOpacity=100;fillOpacity=0;fillColor=#000000;strokeWidth=1.5;" vertex="1" parent="1">
            <mxGeometry x="225" y="225" width="991" height="615" as="geometry" />
          </mxCell>
        </UserObject>
        <UserObject label="AWS Cloud" lucidchartObjectId="MXm-eiOVp4B~" id="kSocjRPX8fHmyO7YEwBQ-6">
          <mxCell style="html=1;overflow=block;blockSpacing=1;whiteSpace=wrap;shape=mxgraph.aws4.group;grIcon=mxgraph.aws4.group_aws_cloud_alt;verticalAlign=top;align=left;grIconSize=40;spacingLeft=45;spacingTop=5;container=1;pointerEvents=0;collapsible=0;recursiveResize=0;fontSize=13.3;fontColor=#666666;fontStyle=1;spacing=0;strokeColor=#232f3e;strokeOpacity=100;fillOpacity=0;fillColor=#000000;strokeWidth=1.5;" vertex="1" parent="1">
            <mxGeometry x="181" y="180" width="1065" height="750" as="geometry" />
          </mxCell>
        </UserObject>
        <mxCell id="kSocjRPX8fHmyO7YEwBQ-7" value="" style="group;dropTarget=0;pointerEvents=0;" vertex="1" parent="1">
          <mxGeometry x="340" y="60" width="640" height="45" as="geometry" />
        </mxCell>
        <UserObject label="%filename%" placeholders="1" lucidchartObjectId="7SQFm34YwSV7" id="kSocjRPX8fHmyO7YEwBQ-8">
          <mxCell style="points=[[0.262,0.967,0],[0.742,0.967,0]];html=1;overflow=block;blockSpacing=1;whiteSpace=wrap;fontSize=19.7;fontColor=#b2b2b2;fontStyle=1;align=center;spacingLeft=7;spacingRight=7;spacingTop=2;spacing=3;strokeOpacity=0;fillOpacity=0;rounded=1;absoluteArcSize=1;arcSize=12;fillColor=#ffffff;strokeWidth=1.5;" vertex="1" parent="kSocjRPX8fHmyO7YEwBQ-7">
            <mxGeometry width="640" height="31" as="geometry" />
          </mxCell>
        </UserObject>
        <UserObject label="%creatorName%  |  %date{mmmm d, yyyy}%" placeholders="1" lucidchartObjectId="7SQFHfnedZkg" id="kSocjRPX8fHmyO7YEwBQ-9">
          <mxCell style="html=1;overflow=block;blockSpacing=1;whiteSpace=wrap;fontSize=11.5;fontColor=#b2b2b2;align=center;spacingLeft=7;spacingRight=7;spacingTop=2;spacing=3;strokeOpacity=0;fillOpacity=0;rounded=1;absoluteArcSize=1;arcSize=12;fillColor=#ffffff;strokeWidth=1.5;" vertex="1" parent="kSocjRPX8fHmyO7YEwBQ-7">
            <mxGeometry y="31" width="640" height="14" as="geometry" />
          </mxCell>
        </UserObject>
        <UserObject label="" lucidchartObjectId="7SQFxdvc~xm6" id="kSocjRPX8fHmyO7YEwBQ-10">
          <mxCell style="html=1;jettySize=18;whiteSpace=wrap;fontSize=13;fontFamily=Helvetica;strokeColor=#b2b2b2;strokeOpacity=100;strokeWidth=1.5;rounded=0;startArrow=none;endArrow=none;exitX=0.262;exitY=0.967;exitPerimeter=0;entryX=0.742;entryY=0.967;entryPerimeter=0;" edge="1" parent="kSocjRPX8fHmyO7YEwBQ-7" source="kSocjRPX8fHmyO7YEwBQ-8" target="kSocjRPX8fHmyO7YEwBQ-8">
            <mxGeometry width="100" height="100" relative="1" as="geometry">
              <Array as="points">
                <mxPoint x="168" y="50" generated="1" />
                <mxPoint x="475" y="50" generated="1" />
              </Array>
            </mxGeometry>
          </mxCell>
        </UserObject>
        <UserObject label="Amazon CloudFront" lucidchartObjectId="PG--PZDK8GW-" id="kSocjRPX8fHmyO7YEwBQ-11">
          <mxCell style="html=1;overflow=block;blockSpacing=1;whiteSpace=wrap;shape=mxgraph.aws4.resourceIcon;resIcon=mxgraph.aws4.cloudfront;labelPosition=center;verticalLabelPosition=bottom;align=center;verticalAlign=top;strokeColor=#ffffff;pointerEvents=1;fontSize=13;fontFamily=Lucid JP;fontColor=default;spacing=0;strokeOpacity=0;fillColor=#693cc5;strokeWidth=1.5;" vertex="1" parent="1">
            <mxGeometry x="465" y="636" width="71" height="71" as="geometry" />
          </mxCell>
        </UserObject>
        <UserObject label="Amazon Simple Storage Service (S3)" lucidchartObjectId="CQ--46~Xb2Sc" id="kSocjRPX8fHmyO7YEwBQ-12">
          <mxCell style="html=1;overflow=block;blockSpacing=1;whiteSpace=wrap;shape=mxgraph.aws4.resourceIcon;resIcon=mxgraph.aws4.s3;labelPosition=center;verticalLabelPosition=bottom;align=center;verticalAlign=top;strokeColor=#ffffff;pointerEvents=1;fontSize=13;fontFamily=Lucid JP;fontColor=default;spacing=0;strokeOpacity=0;fillColor=#3f8624;strokeWidth=1.5;" vertex="1" parent="1">
            <mxGeometry x="810" y="622" width="90" height="90" as="geometry" />
          </mxCell>
        </UserObject>
        <UserObject label="Amazon Route 53" lucidchartObjectId="GaC_6Oe_bBOd" id="kSocjRPX8fHmyO7YEwBQ-13">
          <mxCell style="html=1;overflow=block;blockSpacing=1;whiteSpace=wrap;shape=mxgraph.aws4.resourceIcon;resIcon=mxgraph.aws4.route_53;labelPosition=center;verticalLabelPosition=bottom;align=center;verticalAlign=top;strokeColor=#ffffff;pointerEvents=1;fontSize=13;fontFamily=Lucid JP;fontColor=default;spacing=0;strokeOpacity=0;fillColor=#693cc5;strokeWidth=1.5;" vertex="1" parent="1">
            <mxGeometry x="195" y="480" width="90" height="90" as="geometry" />
          </mxCell>
        </UserObject>
        <UserObject label="" lucidchartObjectId="UaC_Ein6mais" id="kSocjRPX8fHmyO7YEwBQ-14">
          <mxCell style="html=1;jettySize=18;whiteSpace=wrap;fontSize=13;strokeColor=#666666;strokeOpacity=100;strokeWidth=0.8;rounded=1;arcSize=24;edgeStyle=orthogonalEdgeStyle;startArrow=none;endArrow=block;endFill=1;exitX=0.5;exitY=1;exitPerimeter=0;entryX=0;entryY=0.5;entryPerimeter=0;" edge="1" parent="1" source="kSocjRPX8fHmyO7YEwBQ-4" target="kSocjRPX8fHmyO7YEwBQ-13">
            <mxGeometry width="100" height="100" relative="1" as="geometry">
              <Array as="points" />
            </mxGeometry>
          </mxCell>
        </UserObject>
        <UserObject label="Elastic Load Balancing" lucidchartObjectId="biC_~RWWCT2P" id="kSocjRPX8fHmyO7YEwBQ-15">
          <mxCell style="html=1;overflow=block;blockSpacing=1;whiteSpace=wrap;shape=mxgraph.aws4.resourceIcon;resIcon=mxgraph.aws4.elastic_load_balancing;labelPosition=center;verticalLabelPosition=bottom;align=center;verticalAlign=top;strokeColor=#ffffff;pointerEvents=1;fontSize=13;fontFamily=Lucid JP;fontColor=default;spacing=0;strokeOpacity=0;fillColor=#693cc5;strokeWidth=1.5;" vertex="1" parent="1">
            <mxGeometry x="465" y="380" width="90" height="90" as="geometry" />
          </mxCell>
        </UserObject>
        <UserObject label="" lucidchartObjectId="giC_p-B5ev1m" id="kSocjRPX8fHmyO7YEwBQ-16">
          <mxCell style="html=1;jettySize=18;whiteSpace=wrap;fontSize=13;strokeColor=#666666;strokeOpacity=100;strokeWidth=0.8;rounded=1;arcSize=24;edgeStyle=orthogonalEdgeStyle;startArrow=none;endArrow=block;endFill=1;exitX=1;exitY=0.5;exitPerimeter=0;entryX=-0.002;entryY=0.5;entryPerimeter=0;" edge="1" parent="1" source="kSocjRPX8fHmyO7YEwBQ-15" target="kSocjRPX8fHmyO7YEwBQ-3">
            <mxGeometry width="100" height="100" relative="1" as="geometry">
              <Array as="points" />
            </mxGeometry>
          </mxCell>
        </UserObject>
        <UserObject label="" lucidchartObjectId="piC_MrFXWahM" id="kSocjRPX8fHmyO7YEwBQ-17">
          <mxCell style="html=1;jettySize=18;whiteSpace=wrap;fontSize=13;strokeColor=#666666;strokeOpacity=100;strokeWidth=0.8;rounded=1;arcSize=24;edgeStyle=orthogonalEdgeStyle;startArrow=none;endArrow=block;endFill=1;exitX=1;exitY=0.5;exitPerimeter=0;entryX=0;entryY=0.5;entryPerimeter=0;" edge="1" parent="1" source="kSocjRPX8fHmyO7YEwBQ-13" target="kSocjRPX8fHmyO7YEwBQ-15">
            <mxGeometry width="100" height="100" relative="1" as="geometry">
              <Array as="points" />
            </mxGeometry>
          </mxCell>
        </UserObject>
        <UserObject label="" lucidchartObjectId="GiC_cNWyV_Pc" id="kSocjRPX8fHmyO7YEwBQ-18">
          <mxCell style="html=1;jettySize=18;whiteSpace=wrap;fontSize=13;strokeColor=#666666;strokeOpacity=100;strokeWidth=0.8;rounded=1;arcSize=24;edgeStyle=orthogonalEdgeStyle;startArrow=none;endArrow=block;endFill=1;exitX=1;exitY=0.5;exitPerimeter=0;entryX=0;entryY=0.546;entryPerimeter=0;" edge="1" parent="1" source="kSocjRPX8fHmyO7YEwBQ-11" target="kSocjRPX8fHmyO7YEwBQ-12">
            <mxGeometry width="100" height="100" relative="1" as="geometry">
              <Array as="points" />
            </mxGeometry>
          </mxCell>
        </UserObject>
        <UserObject label="" lucidchartObjectId="LiC_an.Vtzm0" id="kSocjRPX8fHmyO7YEwBQ-19">
          <mxCell style="html=1;jettySize=18;whiteSpace=wrap;fontSize=13;strokeColor=#666666;strokeOpacity=100;strokeWidth=0.8;rounded=1;arcSize=24;edgeStyle=orthogonalEdgeStyle;startArrow=none;endArrow=block;endFill=1;exitX=0.5;exitY=1;exitPerimeter=0;entryX=0;entryY=0.5;entryPerimeter=0;" edge="1" parent="1" source="kSocjRPX8fHmyO7YEwBQ-13" target="kSocjRPX8fHmyO7YEwBQ-11">
            <mxGeometry width="100" height="100" relative="1" as="geometry">
              <Array as="points" />
            </mxGeometry>
          </mxCell>
        </UserObject>
        <UserObject label="障害発生時" lucidchartObjectId="jjC_JpVtFMaJ" id="kSocjRPX8fHmyO7YEwBQ-20">
          <mxCell style="html=1;overflow=block;blockSpacing=1;whiteSpace=wrap;fontSize=13;fontFamily=Lucid JP;fontColor=default;align=center;spacing=3.8;strokeOpacity=0;fillOpacity=0;fillColor=#ffffff;strokeWidth=1.5;" vertex="1" parent="1">
            <mxGeometry x="205" y="675" width="180" height="45" as="geometry" />
          </mxCell>
        </UserObject>
        <UserObject label="正常時" lucidchartObjectId="AjC_wdb_G8-j" id="kSocjRPX8fHmyO7YEwBQ-21">
          <mxCell style="html=1;overflow=block;blockSpacing=1;whiteSpace=wrap;fontSize=13;fontFamily=Lucid JP;fontColor=default;align=center;spacing=3.8;strokeOpacity=0;fillOpacity=0;fillColor=#ffffff;strokeWidth=1.5;" vertex="1" parent="1">
            <mxGeometry x="240" y="420" width="180" height="45" as="geometry" />
          </mxCell>
        </UserObject>
        <UserObject label="Route53を使用したフェイルオーバーの場合は、例えばEC2インスタンス上のWEBサービスがダウンしたらS3上の静的ページを表示するなど、そういった用途に使うことができます。" lucidchartObjectId="skC_NlytMs8~" id="kSocjRPX8fHmyO7YEwBQ-22">
          <mxCell style="html=1;overflow=block;blockSpacing=1;whiteSpace=wrap;fontSize=16;fontFamily=Lato;fontColor=#191919;align=center;spacing=3.8;strokeOpacity=0;fillOpacity=0;fillColor=#ffffff;strokeWidth=1.5;" vertex="1" parent="1">
            <mxGeometry x="7.5" y="15" width="465" height="118" as="geometry" />
          </mxCell>
        </UserObject>
        <UserObject label="Amazon EC2" lucidchartObjectId="irC_2Gx03ufM" id="kSocjRPX8fHmyO7YEwBQ-23">
          <mxCell style="html=1;overflow=block;blockSpacing=1;whiteSpace=wrap;shape=mxgraph.aws4.resourceIcon;resIcon=mxgraph.aws4.ec2;verticalLabelPosition=bottom;align=center;verticalAlign=top;strokeColor=#ffffff;pointerEvents=1;fontSize=13;fontFamily=Lucid JP;fontColor=default;spacing=0;strokeOpacity=0;fillColor=#d86613;strokeWidth=1.5;" vertex="1" parent="1">
            <mxGeometry x="885" y="375" width="60" height="60" as="geometry" />
          </mxCell>
        </UserObject>
        <UserObject label="Amazon EC2" lucidchartObjectId="SsC_UxSxsS0c" id="kSocjRPX8fHmyO7YEwBQ-24">
          <mxCell style="html=1;overflow=block;blockSpacing=1;whiteSpace=wrap;shape=mxgraph.aws4.resourceIcon;resIcon=mxgraph.aws4.ec2;verticalLabelPosition=bottom;align=center;verticalAlign=top;strokeColor=#ffffff;pointerEvents=1;fontSize=13;fontFamily=Lucid JP;fontColor=default;spacing=0;strokeOpacity=0;fillColor=#d86613;strokeWidth=1.5;" vertex="1" parent="1">
            <mxGeometry x="883" y="465" width="60" height="60" as="geometry" />
          </mxCell>
        </UserObject>
        <UserObject label="Amazon EC2" lucidchartObjectId="YsC_wzwF46m5" id="kSocjRPX8fHmyO7YEwBQ-25">
          <mxCell style="html=1;overflow=block;blockSpacing=1;whiteSpace=wrap;shape=mxgraph.aws4.resourceIcon;resIcon=mxgraph.aws4.ec2;verticalLabelPosition=bottom;align=center;verticalAlign=top;strokeColor=#ffffff;pointerEvents=1;fontSize=13;fontFamily=Lucid JP;fontColor=default;spacing=0;strokeOpacity=0;fillColor=#d86613;strokeWidth=1.5;" vertex="1" parent="1">
            <mxGeometry x="1050" y="375" width="60" height="60" as="geometry" />
          </mxCell>
        </UserObject>
        <UserObject label="Amazon EC2" lucidchartObjectId="2sC_6C0b2rnC" id="kSocjRPX8fHmyO7YEwBQ-26">
          <mxCell style="html=1;overflow=block;blockSpacing=1;whiteSpace=wrap;shape=mxgraph.aws4.resourceIcon;resIcon=mxgraph.aws4.ec2;verticalLabelPosition=bottom;align=center;verticalAlign=top;strokeColor=#ffffff;pointerEvents=1;fontSize=13;fontFamily=Lucid JP;fontColor=default;spacing=0;strokeOpacity=0;fillColor=#d86613;strokeWidth=1.5;" vertex="1" parent="1">
            <mxGeometry x="1050" y="465" width="60" height="60" as="geometry" />
          </mxCell>
        </UserObject>
      </root>
    </mxGraphModel>
  </diagram>
</mxfile>
